<svg width="29" height="29" viewBox="0 0 29 29" fill="none" xmlns="http://www.w3.org/2000/svg">
<path d="M28.9074 25.1745L27.1489 22.8298V10.6436C27.1489 9.36774 26.111 8.3298 24.8351 8.3298H20.3617C20.1061 8.3298 19.8989 8.53693 19.8989 8.79255C19.8989 9.04817 20.1061 9.2553 20.3617 9.2553H24.8351C25.6006 9.2553 26.2234 9.87812 26.2234 10.6436V22.5213H2.31383C2.1682 22.5213 2.03096 22.5898 1.94362 22.7064L0.0925508 25.1745C0.0324551 25.2546 0 25.352 0 25.4521V26.6862C0 27.9621 1.03794 29 2.31383 29H26.6862C27.9621 29 29 27.9621 29 26.6862V25.4521C29 25.352 28.9675 25.2546 28.9074 25.1745ZM2.5452 23.4468H26.4548L27.6117 24.9893H1.38832L2.5452 23.4468ZM28.0745 26.6862C28.0745 27.4517 27.4517 28.0745 26.6862 28.0745H2.31383C1.54833 28.0745 0.925508 27.4517 0.925508 26.6862V25.9149H14.0372V26.6862C14.0372 26.9418 14.2444 27.1489 14.5 27.1489C14.7556 27.1489 14.9628 26.9418 14.9628 26.6862V25.9149H28.0745V26.6862Z" fill="white"/>
<path d="M8.63832 8.3298H4.1649C2.88901 8.3298 1.85107 9.36774 1.85107 10.6436V21.133C1.85107 21.3886 2.05821 21.5957 2.31383 21.5957C2.56945 21.5957 2.77658 21.3886 2.77658 21.133V10.6436C2.77658 9.87812 3.3994 9.2553 4.1649 9.2553H8.63832C8.89394 9.2553 9.10107 9.04817 9.10107 8.79255C9.10107 8.53693 8.89394 8.3298 8.63832 8.3298Z" fill="white"/>
<path d="M21.406 10.4665C21.3345 10.2936 21.1657 10.1808 20.9785 10.1808H18.9732V0.462754C18.9732 0.207135 18.7661 0 18.5105 0H10.4892C10.2336 0 10.0264 0.207135 10.0264 0.462754V10.1808H8.02113C7.83399 10.1808 7.6652 10.2935 7.59361 10.4665C7.52196 10.6394 7.56155 10.8385 7.69386 10.9708L14.1726 17.4496C14.263 17.5399 14.3814 17.585 14.4999 17.585C14.6183 17.585 14.7367 17.5399 14.8271 17.4496L21.3058 10.9708C21.4382 10.8385 21.4777 10.6395 21.406 10.4665ZM14.4998 16.4679L9.13825 11.1064H10.4892C10.7448 11.1064 10.9519 10.8992 10.9519 10.6436V0.925508H18.0477V10.6436C18.0477 10.8992 18.2548 11.1063 18.5105 11.1063H19.8613L14.4998 16.4679Z" fill="white"/>
<path d="M14.5001 6.01597C14.7557 6.01597 14.9629 5.80879 14.9629 5.55322C14.9629 5.29764 14.7557 5.09046 14.5001 5.09046C14.2445 5.09046 14.0374 5.29764 14.0374 5.55322C14.0374 5.80879 14.2445 6.01597 14.5001 6.01597Z" fill="white"/>
<path d="M12.3402 6.01597C12.5958 6.01597 12.8029 5.80879 12.8029 5.55322C12.8029 5.29764 12.5958 5.09046 12.3402 5.09046C12.0846 5.09046 11.8774 5.29764 11.8774 5.55322C11.8774 5.80879 12.0846 6.01597 12.3402 6.01597Z" fill="white"/>
<path d="M16.6595 6.01597C16.9151 6.01597 17.1223 5.80879 17.1223 5.55322C17.1223 5.29764 16.9151 5.09046 16.6595 5.09046C16.404 5.09046 16.1968 5.29764 16.1968 5.55322C16.1968 5.80879 16.404 6.01597 16.6595 6.01597Z" fill="white"/>
</svg>
