<svg width="39" height="39" viewBox="0 0 39 39" fill="none" xmlns="http://www.w3.org/2000/svg">
<path d="M22.75 0C22.5776 1.72388e-06 22.4123 0.0684842 22.2904 0.190382C22.1685 0.312281 22.1 0.47761 22.1 0.65V7.15C22.1 7.32239 22.1685 7.48772 22.2904 7.60962C22.4123 7.73152 22.5776 7.8 22.75 7.8C24.9903 7.80254 27.1381 8.69361 28.7223 10.2777C30.3064 11.8619 31.1975 14.0097 31.2 16.25C31.2 16.4224 31.2685 16.5877 31.3904 16.7096C31.5123 16.8315 31.6776 16.9 31.85 16.9H38.35C38.5224 16.9 38.6877 16.8315 38.8096 16.7096C38.9315 16.5877 39 16.4224 39 16.25C39 7.28973 31.7103 0 22.75 0ZM32.4786 15.6C32.3179 13.2451 31.3099 11.0281 29.6409 9.35913C27.9719 7.69013 25.7549 6.68206 23.4 6.52142V1.31397C31.1274 1.64626 37.3537 7.8726 37.686 15.6H32.4786Z" fill="white"/>
<path d="M0 1.95H1.3V3.25H0V1.95Z" fill="white"/>
<path d="M2.6 1.95H5.85V3.25H2.6V1.95Z" fill="white"/>
<path d="M28.3479 33.1234C30.6191 31.6491 32.4858 29.6307 33.7785 27.2515C35.0713 24.8723 35.7489 22.2077 35.75 19.5C35.75 19.3276 35.6815 19.1623 35.5596 19.0404C35.4377 18.9185 35.2724 18.85 35.1 18.85H28.6C28.4276 18.85 28.2623 18.9185 28.1404 19.0404C28.0185 19.1623 27.95 19.3276 27.95 19.5C27.95 21.1713 27.4544 22.805 26.5259 24.1946C25.5974 25.5842 24.2777 26.6672 22.7337 27.3068C21.1896 27.9463 19.4906 28.1137 17.8515 27.7876C16.2123 27.4616 14.7067 26.6568 13.5249 25.4751C12.3432 24.2933 11.5384 22.7877 11.2124 21.1485C10.8863 19.5094 11.0537 17.8104 11.6932 16.2663C12.3328 14.7223 13.4158 13.4026 14.8054 12.4741C16.195 11.5456 17.8287 11.05 19.5 11.05C19.6724 11.05 19.8377 10.9815 19.9596 10.8596C20.0815 10.7377 20.15 10.5724 20.15 10.4V3.9C20.15 3.72761 20.0815 3.56228 19.9596 3.44038C19.8377 3.31848 19.6724 3.25 19.5 3.25C15.7078 3.24649 12.0349 4.57543 9.12294 7.00468L6.88998 5.32997C6.77747 5.24561 6.64063 5.20001 6.5 5.2H0V6.5H6.28335L8.14013 7.89262C6.41952 9.57298 5.09388 11.6147 4.25908 13.8702C3.42427 16.1257 3.10118 18.5385 3.31317 20.9342C3.52516 23.3298 4.26692 25.6484 5.48482 27.7223C6.70272 29.7961 8.3663 31.5734 10.3552 32.9255L8.83078 34.45H0V35.75H9.1C9.27238 35.75 9.43771 35.6815 9.55961 35.5597L11.4867 33.6325C13.8661 34.9843 16.5487 35.7123 19.285 35.7486C22.0213 35.7849 24.7224 35.1283 27.1367 33.8401L29.51 35.62C29.6225 35.7044 29.7594 35.75 29.9 35.75H38.35V34.45H30.1167L28.3479 33.1234ZM29.2286 20.15H34.436C34.1037 27.8774 27.8774 34.1028 20.15 34.4352V29.228C22.5048 29.0675 24.7218 28.0596 26.3909 26.3907C28.0599 24.7218 29.068 22.5048 29.2286 20.15ZM18.85 4.56397V9.77142C16.4952 9.93203 14.2782 10.9401 12.6093 12.6091C10.9404 14.2782 9.93248 16.4952 9.77203 18.85H4.56484C4.89716 11.1226 11.1226 4.89627 18.85 4.56397ZM4.56499 20.15H9.77219C9.93259 22.5047 10.9405 24.7217 12.6094 26.3906C14.2783 28.0595 16.4953 29.0674 18.85 29.2278V34.435C11.1226 34.1027 4.89731 27.8774 4.56499 20.15Z" fill="white"/>
<path d="M37.05 37.7H38.35V39H37.05V37.7Z" fill="white"/>
<path d="M30.55 37.7H35.75V39H30.55V37.7Z" fill="white"/>
<path d="M0 37.7H1.3V39H0V37.7Z" fill="white"/>
<path d="M2.6 37.7H7.8V39H2.6V37.7Z" fill="white"/>
<path d="M25.35 22.1V11.7C25.35 11.5276 25.2815 11.3623 25.1596 11.2404C25.0377 11.1185 24.8724 11.05 24.7 11.05H22.1C21.9276 11.05 21.7623 11.1185 21.6404 11.2404C21.5185 11.3623 21.45 11.5276 21.45 11.7V13H19.5C19.3276 13 19.1623 13.0685 19.0404 13.1904C18.9185 13.3123 18.85 13.4776 18.85 13.65V15.6H16.9C16.7276 15.6 16.5623 15.6685 16.4404 15.7904C16.3185 15.9123 16.25 16.0776 16.25 16.25V17.55H14.3C14.1276 17.55 13.9623 17.6185 13.8404 17.7404C13.7185 17.8623 13.65 18.0276 13.65 18.2V22.1C13.65 22.2724 13.7185 22.4377 13.8404 22.5596C13.9623 22.6815 14.1276 22.75 14.3 22.75H24.7C24.8724 22.75 25.0377 22.6815 25.1596 22.5596C25.2815 22.4377 25.35 22.2724 25.35 22.1ZM14.95 18.85H16.25V21.45H14.95V18.85ZM17.55 16.9H18.85V21.45H17.55V16.9ZM20.15 14.3H21.45V21.45H20.15V14.3ZM24.05 21.45H22.75V12.35H24.05V21.45Z" fill="white"/>
<path d="M17.55 23.4H18.85V24.7H17.55V23.4Z" fill="white"/>
<path d="M14.95 23.4H16.25V24.7H14.95V23.4Z" fill="white"/>
<path d="M20.15 23.4H21.45V24.7H20.15V23.4Z" fill="white"/>
<path d="M22.75 23.4H24.05V24.7H22.75V23.4Z" fill="white"/>
</svg>
